<?xml version="1.0" encoding="iso-8859-1"?>
<!-- Generator: Adobe Illustrator 16.0.0, SVG Export Plug-In . SVG Version: 6.00 Build 0)  -->
<!DOCTYPE svg PUBLIC "-//W3C//DTD SVG 1.1//EN" "http://www.w3.org/Graphics/SVG/1.1/DTD/svg11.dtd">
<svg version="1.1" id="Capa_1" xmlns="http://www.w3.org/2000/svg" xmlns:xlink="http://www.w3.org/1999/xlink" x="0px" y="0px"
	 width="50px" height="50px" viewBox="0 0 494.857 494.857" style="enable-background:new 0 0 494.857 494.857;"
	 xml:space="preserve">
<g>
	<g>
		<path d="M411.295,142.85V85.117c0-24.458-18.265-46.692-51.427-62.605C329.619,7.994,289.687,0,247.428,0
			s-82.191,7.994-112.441,22.511c-33.163,15.913-51.426,38.147-51.426,62.605v57.733c0,2.987,1.07,5.876,3.016,8.143l18.559,21.618
			L86.57,194.27c-1.941,2.266-3.009,5.151-3.009,8.135v207.39c0,24.457,18.265,46.684,51.431,62.582
			c30.242,14.496,70.172,22.48,112.437,22.48c42.265,0,82.195-7.984,112.437-22.48c33.166-15.898,51.432-38.125,51.432-62.582
			v-207.39c0-2.983-1.067-5.869-3.009-8.135l-18.566-21.66l18.56-21.618C410.225,148.726,411.295,145.837,411.295,142.85z
			 M247.428,25c65.179,0,114.621,20.097,132.049,42.644c-24.616,23.136-76.146,37.953-132.75,37.953
			c-55.651,0-106.943-14.537-131.912-37.195C131.711,45.549,181.521,25,247.428,25z M386.295,409.795
			c0,14.1-13.573,28.693-37.238,40.039c-26.937,12.912-63.029,20.023-101.629,20.023c-38.6,0-74.692-7.109-101.629-20.023
			c-23.665-11.346-37.238-25.938-37.238-40.037V207.03l17.583-20.515c2.818,1.582,5.766,3.114,8.843,4.591
			c30.25,14.517,70.182,22.511,112.441,22.511s82.191-7.994,112.44-22.511c3.076-1.477,6.024-3.009,8.844-4.591l17.583,20.515
			V409.795z M386.295,128.5c0,28.435-57.031,60.116-138.867,60.116S108.561,156.934,108.561,128.5V95.274
			c31.523,22.048,82.474,35.322,138.166,35.322c56.796,0,108.205-13.639,139.569-36.309L386.295,128.5L386.295,128.5z"/>
		<path d="M328.848,298.301h-42.805v-42.806c0-6.903-5.598-12.5-12.5-12.5h-52.229c-6.903,0-12.5,5.597-12.5,12.5v42.806h-42.806
			c-6.903,0-12.5,5.596-12.5,12.5v52.229c0,6.903,5.597,12.5,12.5,12.5h42.805v42.806c0,6.902,5.597,12.5,12.5,12.5h52.229
			c6.903,0,12.5-5.598,12.5-12.5V375.53h42.805c6.903,0,12.5-5.597,12.5-12.5v-52.229
			C341.348,303.896,335.751,298.301,328.848,298.301z M316.348,350.531h-42.805c-6.903,0-12.5,5.598-12.5,12.5v42.805h-27.229
			v-42.805c0-6.902-5.597-12.5-12.5-12.5h-42.806v-27.23h42.805c6.903,0,12.5-5.597,12.5-12.5v-42.805h27.229v42.805
			c0,6.903,5.597,12.5,12.5,12.5h42.805L316.348,350.531L316.348,350.531z"/>
	</g>
</g>
<g>
</g>
<g>
</g>
<g>
</g>
<g>
</g>
<g>
</g>
<g>
</g>
<g>
</g>
<g>
</g>
<g>
</g>
<g>
</g>
<g>
</g>
<g>
</g>
<g>
</g>
<g>
</g>
<g>
</g>
</svg>
